# xmcd
#
# Track frame offsets: 
#        170
#        7967
#        17522
#        27937
#        36875
#        43765
#        49750
#        68075
#        79935
#        86157
#        96365
#        110512
#        120170
#        128140
#        135612
#        145330
#        155870
#        167757
#        183995
#        195442
#        202630
#        208337
#        224277
#        229682
#        235765
#        244600
#        257175
#        266790
#        275197
#
# Disc length: 3734 seconds
#
# Revision: 0
# Processed by: cddbd v1.5.1PL2 Copyright (c) Steve Scherf et al.
# Submitted via: ExactAudioCopy v0.95a2
#
DISCID=9f0e941d
DTITLE=Woods Brothers - Fiddle Magic
DYEAR=1994
DGENRE=Bluegrass
TTITLE0=Wabash Cannonball
TTITLE1=Goodnight Irene
TTITLE2=Cherokee Maiden
TTITLE3=Tennessee Waltz
TTITLE4=Beaumont Rag
TTITLE5=Home Sweet Home
TTITLE6=Medley: Turkey in the Straw\\Down Yonder\\Buffalo Gals
TTITLE7=Orange Blossom Special
TTITLE8=Beautiful Dreamer
TTITLE9=Silver Bell
TTITLE10=Medley: Jambalaya\\Jole Blon\\Bonaparte's Retreat
TTITLE11=Goodnight Waltz
TTITLE12=She'll be Comin 'Round th Mountain
TTITLE13=Darling Nellie Gray
TTITLE14=Chicken Reel
TTITLE15=San Antonio Rose
TTITLE16=Listen to the Mockingbird
TTITLE17=Faded Love
TTITLE18=Blue Yodel(T is for Texas)
TTITLE19=Blue Moon of Kentucky
TTITLE20=I Saw the Light
TTITLE21=Medley: Stay All Night\\Take Me Back to Tulsa\\Cotton-eyed Jo
TTITLE21=e\\Corrine, Corrina
TTITLE22=The Waltz You Saved for Me
TTITLE23=Put Your Little Foot
TTITLE24=Amazing Grace
TTITLE25=Maiden's Prayer
TTITLE26=Twin Fiddle Polka
TTITLE27=Arkansas Traverler
TTITLE28=Rollin' In My Sweet Baby's Arms
EXTD=
EXTT0=
EXTT1=
EXTT2=
EXTT3=
EXTT4=
EXTT5=
EXTT6=
EXTT7=
EXTT8=
EXTT9=
EXTT10=
EXTT11=
EXTT12=
EXTT13=
EXTT14=
EXTT15=
EXTT16=
EXTT17=
EXTT18=
EXTT19=
EXTT20=
EXTT21=
EXTT22=
EXTT23=
EXTT24=
EXTT25=
EXTT26=
EXTT27=
EXTT28=
PLAYORDER=
